<svg width="32px" height="32px" xmlns="http://www.w3.org/2000/svg" viewBox="0 0 144 143.95"><defs><style>.cls-1{fill:red;}.cls-2{fill:#fff;}</style></defs><g id="Layer_2" data-name="Layer 2"><g id="Layer_1-2" data-name="Layer 1"><ellipse class="cls-1" cx="72" cy="71.98" rx="72" ry="71.98"/><path class="cls-2" d="M103.6,26.89h-.06A13.5,13.5,0,0,0,90,40.39V72H81.67C71.36,72,63,80.06,63,90H90v13.56a13.5,13.5,0,0,0,13.5,13.5h.06a13.51,13.51,0,0,0,13.5-13.5V40.39A13.51,13.51,0,0,0,103.6,26.89Z"/><path class="cls-2" d="M54,54V40.39a13.5,13.5,0,0,0-13.5-13.5H40.4a13.51,13.51,0,0,0-13.5,13.5v63.17a13.51,13.51,0,0,0,13.5,13.5h.06A13.5,13.5,0,0,0,54,103.56V72h7.71C72.34,72,81,63.94,81,54Z"/></g></g></svg>