<svg xmlns="http://www.w3.org/2000/svg" xmlns:xlink="http://www.w3.org/1999/xlink" viewBox="0 0 418.05 113.37"><defs><style>.cls-1{fill:red;}.cls-2{fill:#fff;}.cls-3{fill:url(#linear-gradient);}.cls-4{fill:url(#linear-gradient-2);}</style><linearGradient id="linear-gradient" x1="-126.41" y1="-383.26" x2="-126.32" y2="-393.43" gradientTransform="translate(161.44 442.59)" gradientUnits="userSpaceOnUse"><stop offset="0" stop-color="#e4e5e6"/><stop offset="1" stop-color="#fff" stop-opacity="0"/></linearGradient><linearGradient id="linear-gradient-2" x1="-244.02" y1="-240.45" x2="-243.93" y2="-250.61" gradientTransform="translate(321.64 295.39)" xlink:href="#linear-gradient"/></defs><g id="Layer_2" data-name="Layer 2"><g id="Layer_1-2" data-name="Layer 1"><circle class="cls-1" cx="56.69" cy="56.69" r="56.69"/><path class="cls-2" d="M35,95.91h0a10.4,10.4,0,0,1-10.4-10.4V27.86A10.4,10.4,0,0,1,35,17.46h0a10.4,10.4,0,0,1,10.4,10.4V85.51A10.4,10.4,0,0,1,35,95.91Z"/><rect class="cls-3" x="24.64" y="46.51" width="20.8" height="24.98" transform="translate(70.08 117.99) rotate(180)"/><path class="cls-2" d="M55.44,41.69H24.64v30c3.18-18.1,18.6-17.43,18.6-17.43H65.69C65.69,47.32,61.1,41.69,55.44,41.69Z"/><rect class="cls-2" x="67.23" y="17.46" width="20.8" height="78.45" rx="10.4" transform="translate(155.25 113.37) rotate(180)"/><rect class="cls-4" x="67.23" y="42.12" width="20.8" height="24.98"/><path class="cls-2" d="M57.22,71.69H88v-30c-3.18,18.1-18.6,17.42-18.6,17.42H47C47,66.06,51.56,71.69,57.22,71.69Z"/><path d="M148.26,35.25V50H170.8V35.25a6.91,6.91,0,0,1,1.42-4.75A4.82,4.82,0,0,1,176,28.92a5,5,0,0,1,3.81,1.56,6.82,6.82,0,0,1,1.46,4.77v40.6a6.74,6.74,0,0,1-1.48,4.78A4.94,4.94,0,0,1,176,82.22a4.8,4.8,0,0,1-3.77-1.6,7.09,7.09,0,0,1-1.4-4.77V58.52H148.26V75.85a6.79,6.79,0,0,1-1.47,4.78,5,5,0,0,1-3.8,1.59,4.78,4.78,0,0,1-3.76-1.6,7,7,0,0,1-1.41-4.77V35.25a7,7,0,0,1,1.39-4.75A4.8,4.8,0,0,1,143,28.92a5,5,0,0,1,3.81,1.56A6.78,6.78,0,0,1,148.26,35.25Z"/><path d="M216,76.8a29.38,29.38,0,0,1-6.73,4.06A18.86,18.86,0,0,1,202,82.22a13.86,13.86,0,0,1-6.49-1.46,10.67,10.67,0,0,1-4.31-4,10.32,10.32,0,0,1-1.51-5.41,9.67,9.67,0,0,1,2.5-6.72A12.46,12.46,0,0,1,199.06,61c.61-.14,2.13-.46,4.54-1s4.48-1,6.2-1.36,3.6-.9,5.61-1.49a10,10,0,0,0-1.53-5.57q-1.35-1.78-5.6-1.78a11.71,11.71,0,0,0-5.51,1,8.94,8.94,0,0,0-3.16,3.06c-.88,1.36-1.5,2.26-1.86,2.69a3.1,3.1,0,0,1-2.34.65,4.12,4.12,0,0,1-2.8-1,3.37,3.37,0,0,1-1.17-2.65,8.07,8.07,0,0,1,1.79-4.92,12.74,12.74,0,0,1,5.59-3.94,25.19,25.19,0,0,1,9.46-1.55,26.64,26.64,0,0,1,9.94,1.5,9.22,9.22,0,0,1,5.12,4.73,20.57,20.57,0,0,1,1.49,8.57c0,2.25,0,4.16,0,5.73s0,3.32-.06,5.24a19.15,19.15,0,0,0,.9,5.64,17.83,17.83,0,0,1,.9,3.78A3.55,3.55,0,0,1,225.17,81,4.67,4.67,0,0,1,222,82.22a4.28,4.28,0,0,1-2.92-1.39A20.83,20.83,0,0,1,216,76.8Zm-.63-13.88a48.47,48.47,0,0,1-6.13,1.63c-2.69.58-4.54,1-5.58,1.27a7.54,7.54,0,0,0-2.95,1.58,4,4,0,0,0-1.4,3.28A4.86,4.86,0,0,0,201,74.39a6.1,6.1,0,0,0,4.32,1.53,11.3,11.3,0,0,0,5.26-1.24,8.42,8.42,0,0,0,3.53-3.22c.87-1.45,1.3-3.85,1.3-7.17Z"/><path d="M242.48,48.57v1.16a19,19,0,0,1,5.63-4.9,13.79,13.79,0,0,1,6.61-1.57,15.32,15.32,0,0,1,8.15,2.29,15.68,15.68,0,0,1,5.89,6.68,23.35,23.35,0,0,1,2.16,10.4,25.41,25.41,0,0,1-1.24,8.14A18.46,18.46,0,0,1,266.25,77a15.05,15.05,0,0,1-5.15,3.86,15.25,15.25,0,0,1-6.38,1.36,13.27,13.27,0,0,1-6.91-1.66,19.85,19.85,0,0,1-5.33-4.85V90.13q0,6.32-4.6,6.32c-1.81,0-3-.54-3.59-1.63a10.24,10.24,0,0,1-.88-4.76V48.64a6,6,0,0,1,1.2-4.09,4.1,4.1,0,0,1,3.27-1.36,4.34,4.34,0,0,1,3.32,1.39A5.71,5.71,0,0,1,242.48,48.57Zm18.81,14A16.63,16.63,0,0,0,260.13,56a9.59,9.59,0,0,0-3.22-4.19,7.68,7.68,0,0,0-4.55-1.45,8.56,8.56,0,0,0-6.7,3.12q-2.72,3.13-2.72,9.21c0,3.82.9,6.8,2.71,8.92a8.46,8.46,0,0,0,6.71,3.18,7.69,7.69,0,0,0,4.43-1.39,9.59,9.59,0,0,0,3.27-4.17A16.51,16.51,0,0,0,261.29,62.53Z"/><path d="M283.47,38.73a5.06,5.06,0,0,1-3.42-1.23A4.35,4.35,0,0,1,278.62,34a4.34,4.34,0,0,1,1.46-3.36,4.91,4.91,0,0,1,3.39-1.32,5,5,0,0,1,3.31,1.2A4.25,4.25,0,0,1,288.22,34a4.38,4.38,0,0,1-1.41,3.46A4.86,4.86,0,0,1,283.47,38.73Zm4.75,9.91V76.38a6.21,6.21,0,0,1-1.37,4.36,4.55,4.55,0,0,1-3.48,1.48,4.33,4.33,0,0,1-3.43-1.52,6.34,6.34,0,0,1-1.32-4.32V48.92a6.19,6.19,0,0,1,1.32-4.29,4.43,4.43,0,0,1,3.43-1.44,4.59,4.59,0,0,1,3.48,1.44A5.62,5.62,0,0,1,288.22,48.64Z"/><path d="M333.43,50.22V78.1a29.22,29.22,0,0,1-1,8.23A13.13,13.13,0,0,1,329.14,92a13.62,13.62,0,0,1-5.89,3.34,31.85,31.85,0,0,1-9.05,1.09,26.49,26.49,0,0,1-8.86-1.38,15.44,15.44,0,0,1-6-3.59A6.53,6.53,0,0,1,297.22,87a3.71,3.71,0,0,1,1.2-2.86A4.06,4.06,0,0,1,301.3,83,4.73,4.73,0,0,1,305,84.85c.52.64,1.05,1.27,1.6,1.92a9.49,9.49,0,0,0,1.83,1.65,7,7,0,0,0,2.41,1,14.14,14.14,0,0,0,3.23.33,13.11,13.11,0,0,0,5.78-1,5.94,5.94,0,0,0,2.89-2.9,11.67,11.67,0,0,0,1-4q.15-2.13.21-6.84a15.77,15.77,0,0,1-5.11,4.71,14,14,0,0,1-6.91,1.62,14.57,14.57,0,0,1-8.42-2.46A15.76,15.76,0,0,1,297.92,72,25.4,25.4,0,0,1,296,61.76,24.13,24.13,0,0,1,297.17,54a16.17,16.17,0,0,1,3.36-5.87,14.24,14.24,0,0,1,5-3.6,15.81,15.81,0,0,1,6.26-1.22,15.11,15.11,0,0,1,7.07,1.57,17.22,17.22,0,0,1,5.55,4.9v-1.3a5.62,5.62,0,0,1,1.23-3.87,4.08,4.08,0,0,1,3.17-1.37c1.85,0,3.08.61,3.69,1.81A11.89,11.89,0,0,1,333.43,50.22ZM305.62,62.39q0,5.83,2.55,8.82a8.27,8.27,0,0,0,6.59,3,8.65,8.65,0,0,0,4.52-1.28,9.44,9.44,0,0,0,3.46-3.87,13.52,13.52,0,0,0,1.34-6.28q0-5.87-2.58-9.14a8.25,8.25,0,0,0-6.81-3.26,8,8,0,0,0-6.59,3.12C306.45,55.58,305.62,58.54,305.62,62.39Z"/><path d="M365.6,76.8a29.6,29.6,0,0,1-6.73,4.06,18.88,18.88,0,0,1-7.3,1.36,13.82,13.82,0,0,1-6.48-1.46,10.61,10.61,0,0,1-4.31-4,10.23,10.23,0,0,1-1.51-5.41,9.71,9.71,0,0,1,2.49-6.72A12.49,12.49,0,0,1,348.62,61c.61-.14,2.12-.46,4.53-1s4.49-1,6.21-1.36,3.59-.9,5.61-1.49a10,10,0,0,0-1.53-5.57c-.91-1.19-2.77-1.78-5.61-1.78a11.66,11.66,0,0,0-5.5,1,9,9,0,0,0-3.17,3.06c-.88,1.36-1.5,2.26-1.86,2.69a3.07,3.07,0,0,1-2.34.65,4.07,4.07,0,0,1-2.79-1A3.35,3.35,0,0,1,341,53.53a8.13,8.13,0,0,1,1.79-4.92,12.8,12.8,0,0,1,5.59-3.94,25.23,25.23,0,0,1,9.46-1.55,26.69,26.69,0,0,1,9.95,1.5,9.2,9.2,0,0,1,5.11,4.73,20.55,20.55,0,0,1,1.5,8.57c0,2.25,0,4.16,0,5.73s0,3.32-.05,5.24a19.46,19.46,0,0,0,.89,5.64,17.83,17.83,0,0,1,.9,3.78A3.52,3.52,0,0,1,374.72,81a4.63,4.63,0,0,1-3.14,1.22,4.26,4.26,0,0,1-2.92-1.39A20.83,20.83,0,0,1,365.6,76.8ZM365,62.92a48.71,48.71,0,0,1-6.14,1.63q-4,.87-5.57,1.27a7.47,7.47,0,0,0-2.95,1.58,4,4,0,0,0-1.41,3.28,4.86,4.86,0,0,0,1.65,3.71,6.13,6.13,0,0,0,4.33,1.53,11.23,11.23,0,0,0,5.25-1.24,8.39,8.39,0,0,0,3.54-3.22c.86-1.45,1.3-3.85,1.3-7.17Z"/><path d="M392.85,48.5v1.16a16.77,16.77,0,0,1,5.53-4.9,14.82,14.82,0,0,1,6.91-1.57,13.74,13.74,0,0,1,6.79,1.66,10.48,10.48,0,0,1,4.46,4.67,11.23,11.23,0,0,1,1.23,3.8,38.89,38.89,0,0,1,.28,5.2V76.38a6.35,6.35,0,0,1-1.32,4.36,4.38,4.38,0,0,1-3.42,1.48,4.42,4.42,0,0,1-3.48-1.52,6.3,6.3,0,0,1-1.34-4.32v-16a16,16,0,0,0-1.32-7.26q-1.32-2.5-5.25-2.51a7.78,7.78,0,0,0-4.68,1.53,8.72,8.72,0,0,0-3.09,4.2q-.7,2.14-.71,8v12a6.24,6.24,0,0,1-1.35,4.38,4.56,4.56,0,0,1-3.5,1.46,4.35,4.35,0,0,1-3.41-1.52,6.29,6.29,0,0,1-1.33-4.32V48.64A6,6,0,0,1,385,44.55a4.13,4.13,0,0,1,3.27-1.36,4.45,4.45,0,0,1,2.29.6,4.31,4.31,0,0,1,1.63,1.79A6.33,6.33,0,0,1,392.85,48.5Z"/></g></g></svg>