<svg xmlns="http://www.w3.org/2000/svg" viewBox="0 0 602.27 143.95"><defs><style>.cls-1{fill:red;}.cls-2{fill:#fff;}</style></defs><g id="Layer_2" data-name="Layer 2"><g id="Layer_1-2" data-name="Layer 1"><ellipse class="cls-1" cx="72" cy="71.98" rx="72" ry="71.98"/><path class="cls-2" d="M50.77,85a18.86,18.86,0,0,1,0-26h0A18.74,18.74,0,1,0,23.7,59h0a18.86,18.86,0,0,1,0,26h0a18.74,18.74,0,1,0,27.07,0Z"/><path class="cls-2" d="M120.3,85a18.86,18.86,0,0,1,0-26h0a18.74,18.74,0,1,0-27.07,0h0a18.86,18.86,0,0,1,0,26h0a18.74,18.74,0,1,0,27.07,0Z"/><circle class="cls-2" cx="71.58" cy="71.98" r="18.73"/><path d="M190.1,44.83V67.39h34.43V44.83q0-4.83,2.17-7.25a7.34,7.34,0,0,1,5.72-2.42,7.62,7.62,0,0,1,5.83,2.39c1.48,1.59,2.23,4,2.23,7.28v62c0,3.25-.75,5.69-2.26,7.3a7.58,7.58,0,0,1-5.8,2.42,7.29,7.29,0,0,1-5.75-2.45q-2.14-2.44-2.14-7.27V80.39H190.1v26.48c0,3.25-.76,5.69-2.26,7.3a7.58,7.58,0,0,1-5.8,2.42,7.27,7.27,0,0,1-5.75-2.45q-2.14-2.44-2.15-7.27v-62q0-4.83,2.13-7.25A7.27,7.27,0,0,1,182,35.16a7.62,7.62,0,0,1,5.83,2.39C189.35,39.14,190.1,41.57,190.1,44.83Z"/><path d="M293.65,108.32a45.62,45.62,0,0,1-10.28,6.2,28.77,28.77,0,0,1-11.15,2.07,21.2,21.2,0,0,1-9.91-2.23,16.33,16.33,0,0,1-6.58-6,15.71,15.71,0,0,1-2.31-8.28,14.74,14.74,0,0,1,3.82-10.25,19.07,19.07,0,0,1,10.47-5.7c.93-.21,3.24-.7,6.93-1.45s6.85-1.44,9.48-2.07,5.48-1.38,8.56-2.28c-.18-3.87-.95-6.7-2.33-8.51s-4.24-2.71-8.57-2.71q-5.58,0-8.4,1.55a13.65,13.65,0,0,0-4.84,4.68,47.68,47.68,0,0,1-2.85,4.1c-.55.67-1.74,1-3.57,1a6.25,6.25,0,0,1-4.27-1.59,5.14,5.14,0,0,1-1.8-4,12.45,12.45,0,0,1,2.74-7.52,19.74,19.74,0,0,1,8.54-6,38.63,38.63,0,0,1,14.45-2.36q9.68,0,15.2,2.28a14.18,14.18,0,0,1,7.82,7.23q2.28,4.93,2.28,13.1,0,5.16,0,8.76c0,2.4,0,5.07-.08,8a29.57,29.57,0,0,0,1.37,8.62,27.45,27.45,0,0,1,1.37,5.78,5.4,5.4,0,0,1-2.12,4.1,7.11,7.11,0,0,1-4.81,1.86,6.52,6.52,0,0,1-4.46-2.12A32.28,32.28,0,0,1,293.65,108.32Zm-1-21.22a73.38,73.38,0,0,1-9.37,2.5c-4.1.87-6.94,1.52-8.51,1.93A11.51,11.51,0,0,0,270.29,94a6.16,6.16,0,0,0-2.15,5,7.45,7.45,0,0,0,2.52,5.67,9.39,9.39,0,0,0,6.61,2.33,17.19,17.19,0,0,0,8-1.9,12.74,12.74,0,0,0,5.4-4.92q2-3.33,2-11Z"/><path d="M334,65.19V67a28.88,28.88,0,0,1,8.6-7.49,20.92,20.92,0,0,1,10.09-2.39,23.35,23.35,0,0,1,12.46,3.49,24,24,0,0,1,9,10.2,35.71,35.71,0,0,1,3.3,15.9,38.77,38.77,0,0,1-1.9,12.43,27.88,27.88,0,0,1-5.24,9.51,22.85,22.85,0,0,1-7.87,5.91,23.18,23.18,0,0,1-9.75,2.07,20.35,20.35,0,0,1-10.55-2.53,30.07,30.07,0,0,1-8.14-7.41v22q0,9.68-7,9.67-4.14,0-5.48-2.5a15.64,15.64,0,0,1-1.35-7.28V65.29c0-2.79.61-4.88,1.83-6.25A6.32,6.32,0,0,1,327,57a6.61,6.61,0,0,1,5.07,2.12A8.65,8.65,0,0,1,334,65.19Zm28.74,21.32a25.15,25.15,0,0,0-1.78-10,14.57,14.57,0,0,0-4.91-6.4,11.76,11.76,0,0,0-6.95-2.22,13.06,13.06,0,0,0-10.24,4.78q-4.15,4.77-4.16,14.07,0,8.75,4.14,13.61a12.92,12.92,0,0,0,10.26,4.86,11.73,11.73,0,0,0,6.76-2.12,14.57,14.57,0,0,0,5-6.36A25.31,25.31,0,0,0,362.78,86.51Z"/><path d="M396.67,50.15a7.76,7.76,0,0,1-5.24-1.88A6.66,6.66,0,0,1,389.26,43a6.59,6.59,0,0,1,2.23-5.13,7.48,7.48,0,0,1,5.18-2,7.72,7.72,0,0,1,5.05,1.82,6.51,6.51,0,0,1,2.2,5.32,6.71,6.71,0,0,1-2.15,5.29A7.43,7.43,0,0,1,396.67,50.15Zm7.25,15.14v42.38q0,4.41-2.09,6.66a6.93,6.93,0,0,1-5.32,2.26,6.62,6.62,0,0,1-5.24-2.31q-2-2.31-2-6.61V65.72q0-4.35,2-6.55a6.76,6.76,0,0,1,5.24-2.2,7,7,0,0,1,5.32,2.2A8.55,8.55,0,0,1,403.92,65.29Z"/><path d="M473,67.71V110.3a44.58,44.58,0,0,1-1.56,12.57,20,20,0,0,1-5,8.7,21.05,21.05,0,0,1-9,5.11,49.25,49.25,0,0,1-13.83,1.66,40.28,40.28,0,0,1-13.53-2.12,23.41,23.41,0,0,1-9.19-5.48q-3.22-3.36-3.22-6.9a5.7,5.7,0,0,1,1.83-4.38,6.21,6.21,0,0,1,4.4-1.69,7.21,7.21,0,0,1,5.64,2.85c.79,1,1.6,1.94,2.44,2.92a14.2,14.2,0,0,0,2.8,2.53,11,11,0,0,0,3.68,1.56,21.44,21.44,0,0,0,4.94.51c3.79,0,6.74-.53,8.83-1.59a9,9,0,0,0,4.41-4.43,17.78,17.78,0,0,0,1.47-6.1c.15-2.16.25-5.64.33-10.44a24.09,24.09,0,0,1-7.82,7.19,21.29,21.29,0,0,1-10.55,2.47,22.24,22.24,0,0,1-12.87-3.76A24,24,0,0,1,418.74,101a38.74,38.74,0,0,1-2.95-15.63,37.09,37.09,0,0,1,1.8-11.93,25.11,25.11,0,0,1,5.13-9,21.94,21.94,0,0,1,7.68-5.5A24.07,24.07,0,0,1,440,57.08a22.94,22.94,0,0,1,10.8,2.39A26.22,26.22,0,0,1,459.24,67V65a8.57,8.57,0,0,1,1.88-5.91A6.22,6.22,0,0,1,466,57q4.23,0,5.64,2.76A18.22,18.22,0,0,1,473,67.71ZM430.51,86.29q0,8.92,3.89,13.49a12.63,12.63,0,0,0,10.07,4.56,13.08,13.08,0,0,0,6.9-2,14.39,14.39,0,0,0,5.29-5.91,20.67,20.67,0,0,0,2-9.58q0-9-3.94-14a12.61,12.61,0,0,0-10.4-5,12.2,12.2,0,0,0-10.07,4.78Q430.51,77.48,430.51,86.29Z"/><path d="M522.14,108.32a45.88,45.88,0,0,1-10.29,6.2,28.72,28.72,0,0,1-11.14,2.07,21.2,21.2,0,0,1-9.91-2.23,16.33,16.33,0,0,1-6.58-6,15.71,15.71,0,0,1-2.31-8.28,14.78,14.78,0,0,1,3.81-10.25,19.1,19.1,0,0,1,10.48-5.7c.93-.21,3.24-.7,6.92-1.45s6.85-1.44,9.48-2.07,5.49-1.38,8.57-2.28c-.18-3.87-1-6.7-2.34-8.51s-4.23-2.71-8.56-2.71q-5.59,0-8.41,1.55A13.62,13.62,0,0,0,497,73.3a47.68,47.68,0,0,1-2.85,4.1c-.55.67-1.74,1-3.57,1a6.23,6.23,0,0,1-4.27-1.59,5.14,5.14,0,0,1-1.8-4,12.39,12.39,0,0,1,2.74-7.52,19.68,19.68,0,0,1,8.54-6,38.59,38.59,0,0,1,14.45-2.36q9.66,0,15.2,2.28a14.13,14.13,0,0,1,7.81,7.23q2.29,4.93,2.29,13.1,0,5.16,0,8.76t-.08,8a29.24,29.24,0,0,0,1.37,8.62,27.45,27.45,0,0,1,1.37,5.78,5.4,5.4,0,0,1-2.12,4.1,7.11,7.11,0,0,1-4.81,1.86,6.52,6.52,0,0,1-4.46-2.12A31.48,31.48,0,0,1,522.14,108.32Zm-1-21.22a73.85,73.85,0,0,1-9.37,2.5c-4.1.87-6.94,1.52-8.51,1.93A11.62,11.62,0,0,0,498.77,94a6.19,6.19,0,0,0-2.14,5,7.45,7.45,0,0,0,2.52,5.67,9.36,9.36,0,0,0,6.61,2.33,17.22,17.22,0,0,0,8-1.9,12.66,12.66,0,0,0,5.39-4.92q2-3.33,2-11Z"/><path d="M563.76,65.08v1.77a25.67,25.67,0,0,1,8.46-7.49A22.46,22.46,0,0,1,582.78,57a21.08,21.08,0,0,1,10.36,2.52A16,16,0,0,1,600,66.64a16.75,16.75,0,0,1,1.88,5.8,59.36,59.36,0,0,1,.43,8v27.28q0,4.41-2,6.66a6.68,6.68,0,0,1-5.24,2.26,6.75,6.75,0,0,1-5.31-2.31q-2.06-2.31-2.05-6.61V83.23q0-7.24-2-11.09t-8-3.84a11.88,11.88,0,0,0-7.14,2.34,13.43,13.43,0,0,0-4.73,6.42q-1.08,3.27-1.07,12.24v18.37q0,4.45-2.07,6.69a7,7,0,0,1-5.35,2.23,6.65,6.65,0,0,1-5.21-2.31q-2-2.31-2-6.61V65.29c0-2.79.61-4.88,1.83-6.25a6.32,6.32,0,0,1,5-2.07,6.79,6.79,0,0,1,3.5.91,6.53,6.53,0,0,1,2.49,2.74A9.61,9.61,0,0,1,563.76,65.08Z"/></g></g></svg>